<?xml version="1.0" standalone="no"?>
<!DOCTYPE svg PUBLIC "-//W3C//DTD SVG 20010904//EN"
 "http://www.w3.org/TR/2001/REC-SVG-20010904/DTD/svg10.dtd">
<svg version="1.0" xmlns="http://www.w3.org/2000/svg"
 width="512.000000pt" height="512.000000pt" viewBox="0 0 512.000000 512.000000"
 preserveAspectRatio="xMidYMid meet">

<g transform="translate(0.000000,512.000000) scale(0.100000,-0.100000)"
fill="#000000" stroke="none">
<path d="M3455 4551 c-16 -10 -40 -29 -51 -42 -12 -13 -230 -391 -484 -839
-254 -448 -737 -1294 -1072 -1879 -663 -1156 -635 -1100 -589 -1174 35 -57
111 -84 161 -57 49 26 391 481 617 820 298 447 567 911 1128 1945 155 286 344
630 419 765 l137 245 -3 61 c-3 48 -10 69 -31 97 -53 70 -167 98 -232 58z"/>
<path d="M1449 4081 c-70 -30 -197 -103 -315 -182 -118 -79 -250 -157 -357
-211 -377 -189 -715 -418 -758 -513 -22 -48 -24 -104 -5 -148 16 -37 695 -725
831 -843 141 -122 273 -216 420 -299 91 -52 186 -27 220 59 25 62 10 88 -123
210 -117 108 -255 251 -471 487 -63 68 -182 195 -265 283 l-150 158 23 20 c50
40 205 129 411 238 495 260 562 299 641 382 100 105 146 252 101 324 -21 33
-76 64 -114 64 -12 0 -53 -13 -89 -29z"/>
<path d="M4061 3689 c-45 -23 -80 -78 -81 -127 0 -65 79 -159 265 -313 172
-141 296 -270 422 -438 l41 -56 -81 -43 c-413 -222 -776 -496 -1169 -881
l-148 -146 0 -48 c0 -59 21 -102 60 -122 64 -33 66 -32 452 258 539 405 730
529 1066 694 186 91 194 96 213 136 34 75 24 122 -49 247 -225 381 -515 697
-739 807 -117 57 -186 66 -252 32z"/>
</g>
</svg>
